<?xml version="1.0" encoding="UTF-8"?>
<svg version="1.1" xmlns="http://www.w3.org/2000/svg" width="908" height="409">
<path d="M0 0 C3.33600923 2.17781018 5.650778 4.1854731 7.875 7.5 C0.85454726 7.47068704 -3.33456535 6.10624782 -8.9921875 1.99609375 C-16.50193805 -3.27173493 -26.10404908 -4.32687726 -35.0546875 -3.09765625 C-45.31798239 -0.64086186 -54.19121751 4.66727034 -60.125 13.5 C-64.48265661 21.66070237 -66.2725861 28.14569342 -66.30200195 37.36425781 C-66.31185875 38.70648155 -66.31185875 38.70648155 -66.32191467 40.07582092 C-66.34161299 43.03492318 -66.35330254 45.99397476 -66.36328125 48.953125 C-66.36735678 49.9654998 -66.3714323 50.9778746 -66.37563133 52.02092743 C-66.39647724 57.37934667 -66.4107854 62.73774041 -66.42016602 68.09619141 C-66.43122761 73.62201432 -66.4656291 79.14743425 -66.50533772 84.67311478 C-66.53151894 88.93002049 -66.5398592 93.18683037 -66.54344749 97.44380951 C-66.54830948 99.48030062 -66.55991237 101.51678755 -66.57848549 103.55319977 C-66.60290887 106.40851028 -66.60190601 109.26278044 -66.5949707 112.11816406 C-66.61418579 113.37002251 -66.61418579 113.37002251 -66.63378906 114.64717102 C-66.58324495 120.38108696 -65.29938165 124.68769359 -62.125 129.5 C-58.71913119 132.47750181 -54.93015858 133.40282569 -50.5 133.9375 C-45.36772191 133.27220469 -42.28729285 131.78794613 -38.8125 127.9375 C-35.93416612 123.77990661 -35.97402365 120.65054783 -35.96728516 115.72070312 C-35.96220444 114.91717407 -35.95712372 114.11364502 -35.95188904 113.2857666 C-35.94117233 111.53643389 -35.93255727 109.78708736 -35.92576981 108.03773499 C-35.91398222 105.262348 -35.89452595 102.48711674 -35.87265015 99.71179199 C-35.81105626 91.81898244 -35.75714076 83.92618571 -35.72363281 76.03320312 C-35.70259087 71.20671704 -35.66720309 66.38050984 -35.62287521 61.55418396 C-35.60878052 59.72036543 -35.60000764 57.88649749 -35.59682083 56.05262756 C-35.57117942 42.70020107 -35.15183985 31.17191815 -26.125 20.5 C-20.24508013 15.07034427 -13.12724388 12.62769538 -5.125 12.5 C3.47993324 13.36323375 10.70976866 15.87208581 16.6875 22.25 C22.58037846 29.45837297 23.9869956 37.55010296 24.03613281 46.67016602 C24.04358017 47.72499428 24.04358017 47.72499428 24.05117798 48.8011322 C24.06573383 51.1187337 24.0725927 53.43626662 24.078125 55.75390625 C24.08236607 56.94917592 24.08236607 56.94917592 24.08669281 58.16859245 C24.10166355 62.39047449 24.11090472 66.61232257 24.11523438 70.83422852 C24.12069742 75.16571749 24.14468536 79.4968887 24.17320633 83.82827854 C24.19196729 87.18376018 24.19704554 90.53916757 24.19857025 93.89469719 C24.20157008 95.48967146 24.20950665 97.08464527 24.22275543 98.67956734 C24.35824949 116.25355686 21.15062383 131.09198303 8.8125 144.375 C-2.96898011 155.49113481 -16.76890906 159.16466246 -32.57421875 158.8125 C-43.66639895 158.25731267 -55.16837489 153.92868465 -62.75 145.625 C-63.20375 144.92375 -63.6575 144.2225 -64.125 143.5 C-57.78061983 143.7463837 -53.93422087 144.07045446 -49.125 148.5 C-40.27882869 153.83853911 -30.85428009 155.93268587 -20.6171875 154.03515625 C-10.61964715 151.38690497 -1.95018647 146.15625673 3.875 137.5 C8.40741173 129.11798142 10.02114749 122.11936746 10.05200195 112.70581055 C10.05857315 111.83035583 10.06514435 110.95490112 10.07191467 110.05291748 C10.09157829 107.1641836 10.10329376 104.27550151 10.11328125 101.38671875 C10.11735678 100.39732615 10.1214323 99.40793354 10.12563133 98.38855934 C10.14646083 93.15332882 10.16077697 87.91812428 10.17016602 82.68286133 C10.18123394 77.28597845 10.21564741 71.88950745 10.25533772 66.4927702 C10.28151979 62.33280181 10.28985919 58.17293148 10.29344749 54.01288795 C10.29830799 52.02384466 10.30990659 50.03480559 10.32848549 48.04584312 C10.35291452 45.25768973 10.35190525 42.47060139 10.3449707 39.68237305 C10.35778076 38.86807327 10.37059082 38.0537735 10.38378906 37.21479797 C10.33262147 31.54480484 9.03399008 27.24457306 5.875 22.5 C2.23387995 19.03649556 -0.38700278 17.6311696 -5.4375 17.25 C-10.66498394 17.60440569 -13.72640945 19.06255971 -17.375 22.8125 C-20.92858874 28.269797 -21.41245157 33.4471337 -21.36450195 39.82519531 C-21.36651611 40.63906204 -21.36853027 41.45292877 -21.37060547 42.29145813 C-21.37413861 44.05109569 -21.37339919 45.81074599 -21.36882973 47.57038116 C-21.36321115 50.36296593 -21.37243759 53.15513922 -21.3860321 55.94769287 C-21.42304831 63.88490644 -21.44172776 71.82197976 -21.43041992 79.75927734 C-21.42454276 84.62288016 -21.44295554 89.48590348 -21.47630882 94.34938812 C-21.48422256 96.19438812 -21.48304092 98.03945195 -21.47228432 99.88443756 C-21.36985515 118.24643248 -21.36985515 118.24643248 -27.125 126.5 C-27.99125 127.8921875 -27.99125 127.8921875 -28.875 129.3125 C-34.31845078 134.60474381 -41.52546584 138.01617873 -49.125 138.5 C-58.72853224 138.12971455 -65.77659115 135.71402671 -72.6796875 128.984375 C-79.15450578 121.7049935 -80.23676956 114.44147735 -80.28613281 105.0168457 C-80.29358017 103.93012825 -80.29358017 103.93012825 -80.30117798 102.82145691 C-80.31570657 100.43955512 -80.3225868 98.05771996 -80.328125 95.67578125 C-80.33095238 94.8565386 -80.33377975 94.03729595 -80.33669281 93.19322777 C-80.35164957 88.85578467 -80.36090057 84.51837452 -80.36523438 80.1809082 C-80.37070668 75.72716447 -80.39471847 71.27372834 -80.42320633 66.82008076 C-80.4419417 63.37199558 -80.44704412 59.92398281 -80.44857025 56.47585106 C-80.45157393 54.83539338 -80.45952405 53.19493626 -80.47275543 51.55452919 C-80.60087178 34.44677901 -77.62659354 20.54525769 -65.5 7.8203125 C-47.6703147 -9.59882084 -21.45437532 -13.0408948 0 0 Z " fill="#C9A962" transform="translate(482.125,8.5)"/>
<path d="M0 0 C7.76333878 -0.0932127 15.52654328 -0.16402223 23.29030323 -0.20724869 C26.89645653 -0.22800899 30.50222335 -0.25611051 34.1081543 -0.30175781 C37.59655674 -0.34563443 41.08459054 -0.36922369 44.57324791 -0.37950897 C46.53339691 -0.39035587 48.49340026 -0.42151319 50.45332336 -0.45318604 C61.23647524 -0.45585545 70.35721676 1.44382789 78.34375 9.0703125 C83.74864227 15.36752189 85.3271578 22.40066498 85.21875 30.53125 C84.24527323 41.51763074 78.71527407 48.62678242 71 56 C70.01 56.99 70.01 56.99 69 58 C69.6290625 58.40089844 70.258125 58.80179687 70.90625 59.21484375 C78.8753052 64.50754457 86.64316257 70.32094921 89 80 C89.92841017 89.09400869 90.85474991 100.42033794 85 108 C79.0941903 114.90632334 71.4858284 118.46338981 62.47207642 119.34509277 C58.47067585 119.46050319 54.48989856 119.45141893 50.48828125 119.390625 C49.0242745 119.38314597 47.56025761 119.37746092 46.09623718 119.37347412 C42.28039932 119.35834807 38.46519008 119.31918298 34.64959717 119.2746582 C30.74109394 119.23342044 26.83248713 119.21540286 22.92382812 119.1953125 C15.2822684 119.15267247 7.64122295 119.08458441 0 119 C0 117.68 0 116.36 0 115 C4.95 115 9.9 115 15 115 C15 78.37 15 41.74 15 4 C10.05 4 5.1 4 0 4 C0 2.68 0 1.36 0 0 Z M28 4 C28 21.49 28 38.98 28 57 C46.26666013 58.50592593 46.26666013 58.50592593 61.6875 51.8125 C69.87112763 41.85943937 70.68747277 33.57450196 70 21 C68.9287686 15.34862177 66.23607149 10.87555476 62 7 C49.90874594 2.85060846 49.90874594 2.85060846 28 4 Z M28 61 C28 78.82 28 96.64 28 115 C50.34045269 116.90256082 50.34045269 116.90256082 68.5 107.625 C74.50768502 100.25510733 73.85125614 89.98282051 73 81 C71.51887861 73.99349764 67.99136469 68.06249009 62 64 C51.36657419 59.47846509 51.36657419 59.47846509 28 61 Z " fill="#C9A962" transform="translate(173,287)"/>
<path d="M0 0 C12.88592998 8.0467534 20.2093403 21.05941317 23.75 35.5625 C24.89240717 41.03572757 25.71120511 46.41663207 26 52 C26.05285156 52.86367188 26.10570313 53.72734375 26.16015625 54.6171875 C26.8116052 75.06701976 21.32282964 94.99415203 7.3125 110.3125 C-1.46783669 118.64696021 -11.74504192 121.40648258 -23.51953125 121.2734375 C-33.31189316 120.50411614 -40.92019612 116.65578659 -48 110 C-48.76183594 109.29101562 -49.52367188 108.58203125 -50.30859375 107.8515625 C-63.03405895 94.93296208 -67.79918856 76.98160233 -68.02294922 59.2109375 C-67.81957587 39.61786259 -63.36872296 21.79551774 -49.6875 7.125 C-36.64844501 -5.29208984 -16.0587561 -8.086486 0 0 Z M-40 8 C-48.74947336 18.87374453 -51.11810373 34.18834621 -51.203125 47.77734375 C-51.20882507 48.50635391 -51.21452515 49.23536407 -51.22039795 49.98646545 C-51.22979419 51.52522356 -51.23636038 53.06400129 -51.24023438 54.6027832 C-51.24984434 56.9002845 -51.28087801 59.19685217 -51.3125 61.49414062 C-51.43457829 78.51176223 -49.65504266 97.29243193 -37.30859375 110.15234375 C-32.30893767 114.15376054 -26.68433318 115.62325148 -20.4375 116.5 C-12.36059819 115.32517792 -6.52923869 112.60296095 -1.45703125 106.1171875 C7.76121843 92.72230459 9.19914328 76.64282081 9.24023438 60.82446289 C9.24984079 58.59937698 9.28087503 56.37525666 9.3125 54.15039062 C9.43391431 37.75968654 7.80951855 18.99286837 -4.125 6.62109375 C-14.75392299 -2.56849592 -30.00893379 -1.91901526 -40 8 Z " fill="#C9A962" transform="translate(68,288)"/>
<path d="M0 0 C12.90309122 10.1381431 19.9838417 23.99697159 22.625 40.0625 C25.20164996 61.73046867 23.26924989 84.90300487 9.5546875 102.7578125 C1.56039287 112.08913202 -7.07276191 118.11353113 -19.4765625 119.37890625 C-31.00104239 119.80522949 -40.7826232 116.80824848 -49.375 109.0625 C-50.04144531 108.48757813 -50.70789063 107.91265625 -51.39453125 107.3203125 C-65.00327649 94.77840962 -69.36510508 77.14780535 -70.5625 59.26171875 C-71.03651557 39.26418682 -65.89344396 20.14560998 -52.1875 5.25 C-37.74429634 -8.54908137 -16.85567715 -9.67640725 0 0 Z M-41.71484375 4.96484375 C-52.72782288 18.88006679 -53.90335738 36.20900115 -53.76611328 53.25366211 C-53.74998388 55.62737222 -53.76609463 57.99938666 -53.78515625 60.37304688 C-53.8067831 76.21138334 -52.25634325 94.53447198 -40.8828125 106.65234375 C-35.60315937 111.6278694 -30.06343862 113.59306236 -22.9375 114.5 C-14.95705397 113.51994522 -8.91413303 110.76643169 -3.90234375 104.38671875 C5.54832819 90.00526146 6.85882063 73.35518014 6.875 56.625 C6.87600708 55.90696198 6.87701416 55.18892395 6.87805176 54.4491272 C6.86815005 44.0364615 6.53765773 34.13125647 3.625 24.0625 C3.3465625 23.04929687 3.068125 22.03609375 2.78125 20.9921875 C0.27439522 13.06101764 -3.91282873 6.93536553 -10.3125 1.625 C-20.49594432 -3.57063486 -33.11065902 -3.31388718 -41.71484375 4.96484375 Z " fill="#C9A962" transform="translate(884.375,289.9375)"/>
<path d="M0 0 C7.78093683 0.06151543 15.5615475 0.13883654 23.3421154 0.23571491 C26.95591834 0.28022817 30.56961347 0.31952457 34.18359375 0.34643555 C37.67866463 0.37266078 41.17331633 0.41319423 44.66812515 0.46318626 C46.63419292 0.48771369 48.60042352 0.49784972 50.56661987 0.50764465 C63.71005941 0.72080408 74.75878172 3.77109671 84.296875 13.29296875 C97.48583523 28.88668301 100.11599437 49.23095685 99 69 C97.1829372 87.02526299 88.84190856 102.30919042 74.87109375 113.7421875 C72.9591101 115.04774401 71.1119699 116.05582522 69 117 C68.30132813 117.31453125 67.60265625 117.6290625 66.8828125 117.953125 C61.7506999 119.85390745 56.97996398 120.14388232 51.53125 120.10546875 C50.80027603 120.1010376 50.06930206 120.09660645 49.31617737 120.09204102 C39.52139991 120.01230947 29.7290453 119.75121657 19.9375 119.5 C17.99154122 119.45163102 16.04557768 119.40345287 14.09960938 119.35546875 C9.39968209 119.23917072 4.69982598 119.12031964 0 119 C0 117.68 0 116.36 0 115 C4.62 115 9.24 115 14 115 C14 78.37 14 41.74 14 4 C9.38 4 4.76 4 0 4 C0 2.68 0 1.36 0 0 Z M27 5 C27 41.3 27 77.6 27 115 C40.14429653 117.19071609 54.70727103 118.15704538 66.22265625 110.52734375 C76.75117218 102.20292835 81.29317771 89.30816133 83.03540039 76.3972168 C85.39366829 55.99560225 85.14237562 30.89734008 72 14 C65.11247512 6.97472463 57.53727615 4.03873027 47.72265625 3.8671875 C46.16927088 3.86455687 44.61586834 3.86726539 43.0625 3.875 C42.28970703 3.87113281 41.51691406 3.86726563 40.72070312 3.86328125 C39.57698242 3.86521484 39.57698242 3.86521484 38.41015625 3.8671875 C37.73090088 3.86831543 37.05164551 3.86944336 36.35180664 3.87060547 C33.21662937 4.04310043 30.10836118 4.5559484 27 5 Z " fill="#C9A962" transform="translate(514,287)"/>
<path d="M0 0 C28.38 0 56.76 0 86 0 C87.50606515 3.01213029 87.12160331 6.11282622 87.09765625 9.4140625 C87.0962413 10.14370209 87.09482635 10.87334167 87.09336853 11.62509155 C87.08776531 13.95843585 87.07521235 16.29168464 87.0625 18.625 C87.05748541 20.20572778 87.05292243 21.78645707 87.04882812 23.3671875 C87.03779484 27.24482854 87.02052811 31.12239807 87 35 C85.68 35 84.36 35 83 35 C82.78085937 33.9378125 82.56171875 32.875625 82.3359375 31.78125 C79.66142799 18.97846643 79.66142799 18.97846643 70.9765625 9.67578125 C65.19170452 6.61131187 60.23023015 5.8705811 53.6796875 5.71875 C52.9798172 5.70034058 52.2799469 5.68193115 51.55886841 5.66296387 C48.57373863 5.58451411 45.58839614 5.5164052 42.60302734 5.44775391 C40.42013301 5.39606251 38.23743335 5.33882246 36.0546875 5.28125 C34.09764893 5.23581055 34.09764893 5.23581055 32.10107422 5.18945312 C29 5 29 5 27 4 C27 21.16 27 38.32 27 56 C48.86971952 57.1706923 48.86971952 57.1706923 57 51 C58.08376432 48.27610038 58.79488103 46.06543978 59.375 43.25 C59.53871094 42.55261719 59.70242188 41.85523438 59.87109375 41.13671875 C60.26871109 39.42930313 60.63733749 37.71518033 61 36 C62.32 36 63.64 36 65 36 C65 51.51 65 67.02 65 83 C63.68 83 62.36 83 61 83 C60.82984375 82.20335937 60.6596875 81.40671875 60.484375 80.5859375 C58.59122231 72.14026787 58.59122231 72.14026787 54 65 C46.82343579 60.15569604 46.82343579 60.15569604 27 61 C27 78.82 27 96.64 27 115 C34.1775 114.814375 34.1775 114.814375 41.5 114.625 C43.74006836 114.57400146 43.74006836 114.57400146 46.02539062 114.52197266 C57.00339582 114.19570327 68.39983248 113.2052857 76.828125 105.28125 C82.92016059 97.77389301 85.16955159 88.30477943 87 79 C88.32 79 89.64 79 91 79 C90.8590853 83.41683763 90.71134841 87.83342318 90.5625 92.25 C90.52318359 93.48492187 90.48386719 94.71984375 90.44335938 95.9921875 C90.40146484 97.21679688 90.35957031 98.44140625 90.31640625 99.703125 C90.27974854 100.81333008 90.24309082 101.92353516 90.20532227 103.06738281 C89.92762709 108.38618657 89.44230422 113.69234939 89 119 C59.63 119 30.26 119 0 119 C0 117.68 0 116.36 0 115 C4.95 115 9.9 115 15 115 C15 78.37 15 41.74 15 4 C10.05 4 5.1 4 0 4 C0 2.68 0 1.36 0 0 Z " fill="#C9A962" transform="translate(345,287)"/>
<path d="M0 0 C14.19 0 28.38 0 43 0 C43 1.32 43 2.64 43 4 C38.38 4 33.76 4 29 4 C29 40.63 29 77.26 29 115 C33.62 115 38.24 115 43 115 C43 116.32 43 117.64 43 119 C28.81 119 14.62 119 0 119 C0 117.68 0 116.36 0 115 C4.95 115 9.9 115 15 115 C15 78.37 15 41.74 15 4 C10.05 4 5.1 4 0 4 C0 2.68 0 1.36 0 0 Z " fill="#C9A962" transform="translate(693,287)"/>
</svg>
